<?xml version="1.0" encoding="UTF-8" standalone="no"?>
<svg
   xmlns:dc="http://purl.org/dc/elements/1.1/"
   xmlns:cc="http://creativecommons.org/ns#"
   xmlns:rdf="http://www.w3.org/1999/02/22-rdf-syntax-ns#"
   xmlns:svg="http://www.w3.org/2000/svg"
   xmlns="http://www.w3.org/2000/svg"
   xmlns:sodipodi="http://sodipodi.sourceforge.net/DTD/sodipodi-0.dtd"
   xmlns:inkscape="http://www.inkscape.org/namespaces/inkscape"
   version="1.1"
   id="Layer_1"
   x="0px"
   y="0px"
   viewBox="0 0 432 432"
   style="enable-background:new 0 0 432 432;"
   xml:space="preserve"
   sodipodi:docname="yud.svgz"><metadata
   id="metadata23"><rdf:RDF><cc:Work
       rdf:about=""><dc:format>image/svg+xml</dc:format><dc:type
         rdf:resource="http://purl.org/dc/dcmitype/StillImage" /></cc:Work></rdf:RDF></metadata><defs
   id="defs21" /><sodipodi:namedview
   pagecolor="#ffffff"
   bordercolor="#666666"
   borderopacity="1"
   objecttolerance="10"
   gridtolerance="10"
   guidetolerance="10"
   inkscape:pageopacity="0"
   inkscape:pageshadow="2"
   inkscape:window-width="640"
   inkscape:window-height="480"
   id="namedview19" />
<style
   type="text/css"
   id="style2">
	.st0{fill:#72C04F;}
</style>
<path
   d="M354.06,185.21h-71.63v62.29h72.26c20.67-0.63,30.52-14.21,30.52-30.91C385.2,199.87,374.73,185.84,354.06,185.21z   M299.74,230.2v-27.67h52.87c8.56,0,15.29,3.39,15.29,13.84c0,10.01-6.16,13.84-14.65,13.84H299.74z"
   id="path4" />
<path
   d="M267.7,185.21v44.98c0,9.56-7.76,17.32-17.32,17.32h-68.32c-9.56,0-17.32-7.76-17.32-17.32v-44.98h17.32v39.08  c0,3.27,2.63,5.9,5.9,5.9h56.52c3.27,0,5.9-2.63,5.9-5.9v-39.08H267.7z"
   id="path6" />
<rect
   x="132.7"
   y="185.21"
   class="st0"
   width="0.01"
   height="22.97"
   id="rect8" />
<polygon
   points="150.02,185.21 150.02,230.19 144.76,239.44 132.77,230.2 132.7,208.18 132.72,208.18 132.72,185.21 "
   id="polygon10" />
<polygon
   points="132.72,185.21 132.72,208.18 132.7,208.18 "
   id="polygon12" />
<path
   d="M146.76,235.07l3.27-6.53v1.65c0,9.56-7.76,17.32-17.32,17.32H85.36l8.78-17.31h38.62v-2.12L146.76,235.07z"
   id="path14" />
<polygon
   points="47.07,185.25 146.76,235.07 150.02,228.54 150.02,217.34 132.7,208.69 85.73,185.21 "
   id="polygon16" />
</svg>
